HIERARCHY
ROOT ui
{
	 OFFSET 0 0 0
	 CHANNELS 3 XPosition YPosition Z Position
	 EndSite
	 {
	 OFFSET 0 -1 0
	 }
}
ROOT li
{
	 OFFSET 0 0 0
	 CHANNELS 3 XPosition YPosition Z Position
	 EndSite
	 {
	 OFFSET 0 -1 0
	 }
}
ROOT ul
{
	 OFFSET 0 0 0
	 CHANNELS 3 XPosition YPosition Z Position
	 EndSite
	 {
	 OFFSET 0 -1 0
	 }
}
ROOT ll
{
	 OFFSET 0 0 0
	 CHANNELS 3 XPosition YPosition Z Position
	 EndSite
	 {
	 OFFSET 0 -1 0
	 }
}
ROOT tt
{
	 OFFSET 0 0 0
	 CHANNELS 3 XPosition YPosition Z Position
	 EndSite
	 {
	 OFFSET 0 -1 0
	 }
}
ROOT tb
{
	 OFFSET 0 0 0
	 CHANNELS 3 XPosition YPosition Z Position
	 EndSite
	 {
	 OFFSET 0 -1 0
	 }
}
ROOT td
{
	 OFFSET 0 0 0
	 CHANNELS 3 XPosition YPosition Z Position
	 EndSite
	 {
	 OFFSET 0 -1 0
	 }
}
ROOT v
{
	 OFFSET 0 0 0
	 CHANNELS 3 XPosition YPosition Z Position
	 EndSite
	 {
	 OFFSET 0 -1 0
	 }
}
ROOT bn
{
	 OFFSET 0 0 0
	 CHANNELS 3 XPosition YPosition Z Position
	 EndSite
	 {
	 OFFSET 0 -1 0
	 }
}
MOTION
Frames: 24
Frame Time: 0.002
3.3535900712013247E-4	-6.351119875907898E-4	0		0.46521484375	-2.31873974609375	0		-1.0539923095703125	-0.0150949125289917	0		-0.69880859375	-2.379587646484375	0		1.49191748046875	-0.5826856689453125	0		3.081162841796875	-0.03505310821533203	0		4.6554267578125	0.17476358032226563	0		5.645990234375	0.09889723205566406	0		-0.3001203308105469	5.940439453125	0		
0.004052887916564942	0.0019208110570907593	0		0.4480023498535156	-2.3248349609375	0		-1.0483909912109375	-0.020658220291137695	0		-0.6989297485351562	-2.380032958984375	0		1.4916416015625	-0.5829423828125	0		3.07594287109375	-0.02810045623779297	0		4.65508544921875	0.17477925109863282	0		5.6457685546875	0.09905616760253906	0		-0.2999726257324219	5.939013671875	0		
0.006774540901184082	0.004492371082305908	0		0.4509466552734375	-2.320226806640625	0		-1.105617431640625	-0.01430022144317627	0		-0.7180367431640625	-2.379198974609375	0		1.4974698486328124	-0.5762911987304687	0		3.0925634765625	-0.032476638793945314	0		4.64883740234375	0.18086851501464843	0		5.64844384765625	0.10600618743896484	0		-0.31875717163085937	5.9408662109375	0		
0.006460814952850342	0.004114099025726318	0		0.47980044555664064	-2.32198974609375	0		-1.035864501953125	-0.010782008171081542	0		-0.6462552490234375	-2.386677734375	0		1.4972022705078125	-0.5765508422851563	0		3.07755859375	-0.011394110679626465	0		4.66159521484375	0.18667071533203125	0		5.65118603515625	0.12331214904785157	0		-0.32052880859375	5.9414765625	0		
-0.0018125200271606446	0.005861464977264404	0		0.46673199462890624	-2.318134765625	0		-1.04528076171875	-0.019097846984863283	0		-0.6972716064453125	-2.3793603515625	0		1.4908428955078126	-0.5837188720703125	0		3.049927978515625	-0.034138465881347654	0		4.6532939453125	0.1877694854736328	0		5.6409228515625	0.11163980102539063	0		-0.2891678771972656	5.94862158203125	0		
0.002824246883392334	4.3599799275398257E-4	0		0.4734471435546875	-2.32955517578125	0		-1.0496126708984375	-0.022468332290649415	0		-0.6634688720703125	-2.3852509765625	0		1.4905936279296874	-0.5839673461914062	0		3.079622314453125	-0.035706787109375	0		4.648904296875	0.1818030242919922	0		5.64493212890625	0.09944764709472656	0		-0.30402191162109377	5.93844921875	0		
0.002546637058258057	9.883499890565872E-5	0		0.4473681640625	-2.326490478515625	0		-1.0458463134765625	-0.01993209648132324	0		-0.6886727905273438	-2.3912744140625	0		1.4903543701171875	-0.5842067260742188	0		3.082418212890625	-0.030885066986083985	0		4.657599609375	0.180642822265625	0		5.63119140625	0.09996324920654297	0		-0.33877203369140624	5.93257763671875	0		
-0.0026458430290222166	0.004851103782653809	0		0.47524118041992186	-2.32718017578125	0		-1.036996337890625	-0.012442264556884765	0		-0.6867506103515625	-2.3886630859375	0		1.4931820068359376	-0.5804786376953125	0		3.07836962890625	-0.015962794303894044	0		4.65732470703125	0.18060447692871093	0		5.64453125	0.0943297119140625	0		-0.3384072265625	5.931224609375	0		
0.005074386119842529	0.002439851999282837	0		0.4501903991699219	-2.3220986328125	0		-1.0372459716796876	-0.012796512603759766	0		-0.686871337890625	-2.388998291015625	0		1.492963134765625	-0.5806956176757813	0		3.085977783203125	-0.026206071853637696	0		4.6562626953125	0.1945719451904297	0		5.640181640625	0.11177936553955078	0		-0.33897943115234375	5.93090869140625	0		
0.0017954510450363158	-7.937229871749878E-4	0		0.4729505615234375	-2.330677490234375	0		-1.04659423828125	-0.020995223999023437	0		-0.689034912109375	-2.392279296875	0		1.4896982421875	-0.5848572387695312	0		3.104923828125	-0.013603033065795899	0		4.647833984375	0.18163458251953124	0		5.6442275390625	0.09950794219970703	0		-0.30640707397460937	5.93714892578125	0		
-0.0033573060035705566	0.004021739959716797	0		0.42811166381835936	-2.310280517578125	0		-1.0508587646484375	-0.02423748970031738	0		-0.7119437255859375	-2.37724072265625	0		1.4894993896484374	-0.5850485229492187	0		3.08144970703125	-0.03140038681030274	0		4.6516865234375	0.18752023315429686	0		5.6440732421875	0.09947383880615235	0		-0.3068824462890625	5.93688134765625	0		
0.0013605420589447022	-0.0012805169820785522	0		0.47269964599609376	-2.331126953125	0		-1.047027587890625	-0.021564807891845703	0		-0.691308837890625	-2.39479248046875	0		1.4893094482421876	-0.5852265014648438	0		3.073268310546875	-0.029408010482788086	0		4.65146826171875	0.1874579315185547	0		5.64097412109375	0.08222095489501953	0		-0.34139178466796877	5.93111572265625	0		
0.0011608599424362182	-0.0014910329580307008	0		0.44968609619140626	-2.32300146484375	0		-1.1081785888671876	-0.017953475952148436	0		-0.6873650512695313	-2.390080810546875	0		1.49218359375	-0.58143359375	0		3.090011962890625	-0.033761554718017575	0		4.6492490234375	0.18641888427734374	0		5.642501953125	0.1236192626953125	0		-0.32566387939453123	5.938669921875	0		
-9.159160256385804E-4	0.0063471879959106445	0		0.47853903198242187	-2.32458447265625	0		-1.038303955078125	-0.014149681091308593	0		-0.6983807373046875	-2.382134033203125	0		1.4920093994140624	-0.5815848999023437	0		3.075118896484375	-0.012664902687072753	0		4.6551669921875	0.19426252746582032	0		5.64237060546875	0.12353392028808594	0		-0.3269745178222656	5.940486328125	0		
7.932059764862061E-4	-0.0018479180335998534	0		0.47435086059570314	-2.328686767578125	0		-1.04759326171875	-0.022211795806884767	0		-0.6557258911132813	-2.397914794921875	0		1.4887864990234374	-0.5856809692382813	0		3.051691162109375	-0.030448902130126954	0		4.65088671875	0.1872435302734375	0		5.636400390625	0.09940908050537109	0		-0.30832901000976565	5.936046875	0		
6.234779953956604E-4	-0.0019956589937210082	0		0.4721737060546875	-2.33179931640625	0		-1.0477626953125	-0.02237495231628418	0		-0.7047440185546875	-2.3893896484375	0		1.48556982421875	-0.5897645874023437	0		3.072533935546875	-0.02984477996826172	0		4.646630859375	0.18122055053710937	0		5.63628076171875	0.09929409027099609	0		-0.3085860595703125	5.93589453125	0		
-0.004467892169952393	0.0029450130462646486	0		0.4460791320800781	-2.328561279296875	0		-1.047924072265625	-0.02251367378234863	0		-0.6600679321289062	-2.40315087890625	0		1.4854140625	-0.589878662109375	0		3.080343994140625	-0.032054771423339845	0		4.65055078125	0.18708082580566407	0		5.6361669921875	0.09916461181640625	0		-0.3428856201171875	5.93023779296875	0		
3.078339993953705E-4	-0.002234441041946411	0		0.44796405029296876	-2.326697265625	0		-1.1149461669921874	-0.01269637966156006	0		-0.69008203125	-2.39384716796875	0		1.4483499755859375	-0.5834667358398438	0		3.061414794921875	-0.015886834144592285	0		4.6544931640625	0.19393682861328124	0		5.6325712890625	0.11297966766357422	0		-0.36201104736328127	5.93439013671875	0		
0.003202259063720703	6.3059002161026E-4	0		0.47581494140625	-2.32718017578125	0		-1.0391146240234375	-0.014848394393920899	0		-0.6562874755859375	-2.39841357421875	0		1.4881712646484375	-0.5861163330078125	0		3.0841123046875	-0.027298194885253906	0		4.65024853515625	0.18690174865722656	0		5.64308447265625	0.09862158203125	0		-0.3091371765136719	5.93555859375	0		
-0.00490946102142334	0.0026654279232025146	0		0.46272256469726564	-2.32307763671875	0		-1.0433104248046876	-0.018864694595336913	0		-0.6944334106445312	-2.3979580078125	0		1.4849732666015625	-0.5901563110351562	0		3.094068359375	-0.0205266056060791	0		4.65010888671875	0.1868073272705078	0		5.6358525390625	0.09869344329833984	0		-0.30826864624023437	5.93446923828125	0		
-1.1356599628925323E-4	-0.002464824914932251	0		0.47144464111328127	-2.332266845703125	0		-1.048499755859375	-0.022847707748413087	0		-0.662686279296875	-2.405459228515625	0		1.481793212890625	-0.5931865234375	0		3.079768310546875	-0.032414794921875	0		4.6599755859375	0.1865714874267578	0		5.6428876953125	0.09827390289306641	0		-0.30934341430664064	5.93542431640625	0		
-2.4104200303554535E-4	-0.0025115818977355956	0		0.4453358459472656	-2.328956298828125	0		-1.117676513671875	-0.025919586181640624	0		-0.6967671508789063	-2.400024658203125	0		1.4847008056640625	-0.5902918090820313	0		3.066767333984375	-0.023314979553222655	0		4.64985107421875	0.18661286926269532	0		5.6385859375	0.11034105682373047	0		-0.3434858093261719	5.9298564453125	0		
0.0026798110008239744	4.1286700963974E-4	0		0.44825164794921873	-2.324038330078125	0		-1.0337220458984375	-0.021111112594604492	0		-0.692866455078125	-2.3961044921875	0		1.5210931396484375	-0.6248598022460937	0		3.088490478515625	-0.03469810104370117	0		4.65771826171875	0.18540188598632812	0		5.64980908203125	0.09246263122558594	0		-0.36049282836914065	5.93206494140625	0		
0.002565963983535767	3.923009932041168E-4	0		0.448098388671875	-2.324066650390625	0		-1.039751708984375	-0.01503077793121338	0		-0.6950487060546875	-2.398085205078125	0		1.4875035400390626	-0.5864342651367187	0		3.073671142578125	-0.013563236236572266	0		4.6537197265625	0.19335757446289062	0		5.64133740234375	0.12196195983886719	0		-0.30846923828125	5.9343232421875	0		
